<?xml version="1.0" encoding="UTF-8"?>
<svg xmlns="http://www.w3.org/2000/svg" xmlns:xlink="http://www.w3.org/1999/xlink" width="50px" height="50px" viewBox="0 0 50 50" version="1.1">
<g id="surface5331">
<path style=" stroke:none;fill-rule:nonzero;fill:rgb(0%,0%,0%);fill-opacity:1;" d="M 45 2 C 44.199219 2 43.445312 2.3125 42.878906 2.878906 L 21 24.757812 L 21 27.585938 L 44.292969 4.292969 C 44.488281 4.097656 44.742188 4 45 4 C 45.257812 4 45.511719 4.097656 45.707031 4.292969 C 46.097656 4.683594 46.097656 5.316406 45.707031 5.707031 L 21 30.414062 L 21 33.242188 L 47.121094 7.121094 C 47.6875 6.554688 48 5.800781 48 5 C 48 4.199219 47.6875 3.445312 47.121094 2.878906 C 46.554688 2.3125 45.800781 2 45 2 Z M 19 26.363281 L 12.890625 32.472656 L 17.523438 37.109375 L 19 35.636719 Z M 9 33 L 6 36 L 6.972656 36.972656 L 9.972656 33.972656 Z M 11.476562 33.890625 L 2 43.34375 L 3.328125 44.671875 L 2 46 L 4 48 L 5.328125 46.671875 L 6.65625 48 L 16.109375 38.519531 Z M 11.476562 33.890625 "/>
</g>
</svg>
